PathFileType	4	(X/Y/Z)	Kaydara																																																																																																																									
DataRate	CameraRate	NumFrames	NumMarkers	Units	OrigDataRate	OrigDataStartFrame	OrigNumFrames																																																																																																																					
30	30	8	41	mm	30	233	372																																																																																																																					
Frame#	Time	NABA_LFHD			NABA_RFHD			NABA_LBHD			NABA_RBHD			NABA_LFTShould			NABA_RFTShould			NABA_LRRShould			NABA_RRRShould			NABA_T10			NABA_STRN			NABA_TRUN			NABA_LSHO			NABA_LUPA			NABA_LELB			NABA_LFRM			NABA_LWRA			NABA_LWRB			NABA_LFIN			NABA_RSHO			NABA_RUPA			NABA_RELB			NABA_RFRM			NABA_RWRA			NABA_RWRB			NABA_RFIN			NABA_LFWT			NABA_RFWT			NABA_LBWT			NABA_RBWT			NABA_LTHI			NABA_LKNE			NABA_LSHN			NABA_LANK			NABA_LHEE			NABA_LTOE			NABA_RTHI			NABA_RKNE			NABA_RSHN			NABA_RANK			NABA_RHEE			NABA_RTOE		
		X1	Y1	Z1	X2	Y2	Z2	X3	Y3	Z3	X4	Y4	Z4	X5	Y5	Z5	X6	Y6	Z6	X7	Y7	Z7	X8	Y8	Z8	X9	Y9	Z9	X10	Y10	Z10	X11	Y11	Z11	X12	Y12	Z12	X13	Y13	Z13	X14	Y14	Z14	X15	Y15	Z15	X16	Y16	Z16	X17	Y17	Z17	X18	Y18	Z18	X19	Y19	Z19	X20	Y20	Z20	X21	Y21	Z21	X22	Y22	Z22	X23	Y23	Z23	X24	Y24	Z24	X25	Y25	Z25	X26	Y26	Z26	X27	Y27	Z27	X28	Y28	Z28	X29	Y29	Z29	X30	Y30	Z30	X31	Y31	Z31	X32	Y32	Z32	X33	Y33	Z33	X34	Y34	Z34	X35	Y35	Z35	X36	Y36	Z36	X37	Y37	Z37	X38	Y38	Z38	X39	Y39	Z39	X40	Y40	Z40	X41	Y41	Z41
																																																																																																																												
233	7.743	213.03225	1449.85397	337.72156	45.0663	1411.50391	342.48875	219.72439	1532.45682	241.84513	6.46159	1477.50244	274.55671	201.6803	1305.89645	162.41247	68.89966	1293.66653	170.32488	191.66821	1376.33102	53.9561	43.96314	1362.20016	71.38906	127.81894	1219.02214	-36.12164	142.69895	1241.5834	205.92707	151.61253	1140.13405	242.5849	297.41879	1339.82986	109.61995	358.98697	1103.62053	63.18989	367.9879	1017.52007	83.25603	356.2196	941.31371	68.15171	287.29027	811.5361	165.09851	359.41414	804.19846	162.07472	335.24265	756.29364	212.88309	-28.45362	1318.77472	138.59932	-79.18205	1105.71297	80.61291	-94.46073	987.95708	134.28901	-93.65713	894.90097	150.49567	-12.9537	781.26701	231.6254	-85.98249	767.8289	241.4249	-65.48117	735.74448	274.32608	277.36803	934.13918	143.17516	13.87359	927.71828	163.2625	214.43514	992.58911	-25.06442	45.68591	1006.20354	-13.65576	292.3704	627.38449	56.5822	302.21012	492.96577	144.50534	265.54585	296.93613	119.63527	289.86616	184.01258	-3.80445	225.99218	151.89802	-64.86121	296.23205	68.24771	86.79625	23.2831	641.32996	19.48047	48.48989	480.85487	132.79866	74.94091	309.48269	113.97038	81.45301	117.665	50.03689	132.84198	71.66048	-19.64346	134.41865	53.09933	186.28454
234	7.777	212.65774	1450.36758	344.83978	44.66926	1412.02286	349.45583	219.52616	1532.51282	248.61645	6.19094	1477.71088	281.18755	201.61259	1305.34866	169.65824	68.8473	1292.95258	177.35399	191.78839	1375.63141	61.27955	44.01983	1361.40823	78.38705	128.18334	1218.0481	-28.39656	142.5694	1241.03859	213.13103	151.42772	1139.8069	250.2582	297.43315	1339.20624	116.99251	358.83251	1102.75566	70.86349	368.29369	1016.87035	91.07506	356.64124	940.74135	75.8317	290.24796	809.96033	173.07207	362.19597	803.0426	168.70361	339.85668	755.05821	219.856	-28.55592	1318.00507	145.3649	-78.64327	1104.972	86.39476	-93.91423	986.99989	139.75052	-92.80222	893.84399	155.79708	-11.78716	780.52483	237.22095	-84.78945	766.57127	246.37865	-64.26046	734.52103	279.20708	277.49308	933.85193	151.69024	13.86027	927.0813	171.57257	214.86191	991.78185	-16.62637	46.10895	1005.32692	-5.35988	292.43006	626.7659	70.8534	300.92207	493.90224	161.92406	264.29472	295.70658	149.31687	291.41502	174.11833	35.045	228.52667	137.64876	-24.8135	296.34254	66.04656	133.91293	23.87945	641.16478	26.47824	48.85533	479.87396	138.72078	75.53853	308.45667	117.88795	81.79799	117.47316	51.33799	133.12419	72.2777	-19.2656	134.43892	53.00738	186.31994
235	7.81	212.72953	1450.61905	351.68083	44.76835	1412.25525	356.13094	219.73948	1532.43423	255.23256	6.34842	1477.7037	287.58947	202.06451	1304.73755	176.57284	69.2965	1292.30011	184.19472	192.27596	1374.6756	68.26131	44.5312	1360.54901	85.24855	128.76001	1216.81435	-20.79845	142.93531	1240.55031	220.12487	151.71924	1139.53018	257.76556	297.87598	1338.35785	123.94194	359.10549	1101.80984	78.33327	369.05754	1016.15067	98.63451	357.75364	940.16083	83.1498	293.99677	808.24318	180.68455	365.81444	801.93085	175.19917	345.24738	753.84964	226.50707	-28.22768	1317.28287	152.08755	-77.51836	1104.43405	91.9527	-92.72669	986.05301	144.68005	-91.49647	892.86385	160.19228	-10.1806	779.72	242.4991	-83.52166	765.00481	249.81501	-63.00179	732.7858	282.50046	277.88574	933.37326	160.10168	14.28839	926.42685	180.07982	215.33159	990.64072	-8.1435	46.73644	1004.179	2.94489	292.41047	626.22364	84.47218	300.15997	494.81724	178.1926	263.45081	295.43737	178.32176	292.76556	165.39875	74.22965	231.00956	124.65188	16.04299	295.31122	64.66599	181.30632	24.60338	640.69595	33.47796	49.6845	478.52825	144.60826	77.23096	307.00399	122.38827	82.79169	116.74127	53.12	134.17928	72.62272	-18.48361	134.71861	52.91448	186.37897
236	7.843	213.29609	1450.57953	358.30502	45.29724	1412.3526	362.64618	220.53358	1532.03445	261.47274	7.03718	1477.53799	293.72515	202.80767	1303.70285	183.35623	70.02159	1291.49597	191.04074	193.067	1373.18649	74.87267	45.34265	1359.37332	91.94658	129.33413	1214.9662	-13.20942	143.61852	1239.95506	227.21508	152.35291	1139.0844	265.28591	298.61927	1337.03918	130.45665	359.86313	1100.52322	85.35652	370.53413	1015.09575	105.85135	359.7295	939.22081	90.34844	298.44042	805.97511	187.62362	370.242	800.71793	181.59069	350.67596	752.08099	232.95868	-27.59341	1316.47705	158.78894	-76.07049	1104.00452	97.49103	-91.15861	985.06104	149.25676	-89.88052	891.85944	163.76781	-8.95136	777.59254	244.16759	-82.02676	762.96219	252.02225	-61.42874	730.26764	284.28995	278.32394	932.4955	168.64285	14.74181	925.09888	188.46794	215.96218	989.1037	0.40203	47.33033	1002.38724	11.30978	293.00282	624.99672	97.3943	299.88379	495.06851	192.92753	262.77885	295.4442	206.37678	294.11375	157.80053	113.4882	233.85811	113.03594	57.5979	293.93129	64.34755	227.97989	25.56643	639.55662	41.25996	51.80397	476.86501	151.65937	79.8449	305.28217	127.50859	84.34834	116.01105	55.26644	135.54105	72.94223	-17.82446	135.31014	52.848	186.51583
237	7.877	214.43079	1450.31738	364.87072	46.32767	1412.47971	369.28741	221.94555	1531.30798	267.66884	8.30579	1477.41684	300.06151	203.87144	1302.36069	190.06323	71.05537	1290.3949	197.92562	194.22058	1371.50497	81.50905	46.42248	1358.11966	98.85385	130.2074	1213.12828	-5.68774	144.57814	1238.89801	234.32421	153.11205	1138.23547	272.91956	299.65805	1335.22232	136.99171	361.10092	1098.6132	92.28974	372.49901	1013.49152	113.11846	362.23351	937.80472	97.4613	303.14348	803.0378	193.86688	374.9815	798.77121	187.67559	356.1499	749.36325	238.41017	-26.60212	1315.40298	165.70435	-74.68263	1103.30971	103.09628	-89.3187	983.81706	153.76396	-88.08993	890.60234	166.98511	-7.35302	775.17357	245.75136	-80.4266	760.41771	253.36351	-59.82666	727.15256	285.05367	278.95569	931.47987	177.45331	15.63622	923.64754	196.74389	216.76683	987.31636	9.03706	48.23333	1000.65903	19.8502	293.78448	623.50361	109.65955	299.71441	494.73354	206.57316	261.90535	296.19289	233.51627	295.86079	151.51154	152.74537	236.94727	102.65034	98.67661	291.8137	66.41071	273.91953	26.64543	638.63033	49.59356	53.38957	475.51765	159.20706	81.46843	303.68727	132.6888	85.22901	115.43974	57.25702	135.98555	73.48748	-16.98384	135.8221	52.53893	186.47636
238	7.91	216.08484	1449.81476	371.58928	47.9218	1412.5145	376.11153	223.89931	1530.41061	274.10755	10.0982	1477.28333	306.60822	205.29057	1300.77118	196.9964	72.39252	1289.3222	204.95237	195.72033	1369.80682	88.47128	47.99159	1356.82816	105.8267	131.45523	1211.20041	2.08736	145.84376	1237.64938	241.50372	154.08907	1137.17224	280.59799	301.11156	1333.20114	143.73807	362.48035	1096.45096	99.14053	374.60716	1011.63589	120.38104	364.92329	936.27052	104.17211	307.96963	799.63661	199.18587	379.91447	796.39709	192.62922	361.7593	745.98831	242.72387	-25.23293	1314.25812	172.69627	-73.25992	1102.60147	108.68299	-87.38291	982.5721	158.38064	-86.24883	889.37881	170.09232	-5.46269	772.4202	246.49223	-78.66551	757.70447	254.13151	-57.8761	723.7085	285.12842	279.94568	930.59586	186.76624	16.21359	922.976	206.11561	217.93894	985.61501	18.07637	49.51045	999.10896	28.57698	294.79553	622.47566	120.84249	299.88012	494.41311	219.55568	261.43362	297.68793	259.12716	297.15799	147.22374	190.62344	239.66789	94.8711	138.76887	289.55334	70.18404	317.97672	27.28946	637.67498	57.89133	54.27814	474.05884	166.76929	82.8414	301.98236	138.09929	85.74034	115.11392	59.29125	136.12048	74.04328	-16.25423	136.09421	52.542	186.5638
239	7.943	218.2177	1449.23691	378.70571	49.91378	1412.49832	383.16208	226.35555	1529.42139	280.8882	12.35037	1477.08252	313.34711	207.14451	1299.26163	204.25396	74.18968	1288.20847	212.24653	197.81921	1367.94693	95.62632	50.01922	1355.53802	112.99898	133.2631	1209.23515	10.15935	147.3571	1236.53091	248.95662	155.26861	1136.26808	288.55999	303.07846	1331.2825	150.87939	364.04903	1094.55093	106.13135	376.62212	1009.86763	127.3948	367.39998	934.89578	110.43414	312.76228	796.2748	203.8323	384.68678	793.90724	196.50917	367.26429	742.2142	245.75937	-23.53932	1313.28934	179.7694	-71.66043	1102.12952	114.38374	-85.30339	981.61186	163.06658	-84.42477	888.44582	173.15569	-3.75529	769.85901	246.84431	-76.79138	755.17868	254.65027	-55.82706	720.32288	284.59078	280.82411	929.26468	196.4432	16.98369	922.02789	215.34929	219.38826	983.83232	27.36882	50.80974	997.3777	37.44079	296.04113	620.98389	132.1268	300.66059	493.77975	231.97504	261.38821	299.8031	283.00526	298.35117	144.98248	226.86153	243.057	89.18179	176.73124	286.81917	74.9017	359.28566	28.3394	636.79893	66.00113	55.07815	472.50748	174.0502	83.84988	300.32335	143.09411	86.1855	114.76028	60.98918	136.31709	74.58389	-15.59013	136.29799	52.4719	186.77708
240	7.977	220.83206	1448.57941	386.10237	52.38909	1412.45834	390.72857	229.28406	1528.3371	287.95727	15.0772	1476.93039	320.62187	209.28844	1297.72812	212.07363	76.21685	1287.23099	219.85041	200.2512	1366.09238	103.46597	52.43719	1354.26392	120.55039	135.4178	1207.26173	18.56028	149.18567	1235.42709	256.80311	156.63149	1135.33699	296.82716	305.41325	1329.28513	158.56744	365.69313	1092.58018	113.17462	378.62942	1007.98965	134.29859	369.70474	933.52394	116.28818	317.40255	793.33649	208.89217	389.10168	791.03096	199.38795	372.45533	738.00972	247.6449	-21.47981	1312.42096	187.11756	-69.71828	1102.08405	120.19382	-83.26495	980.90439	167.6539	-82.57622	887.72873	176.14756	-1.91216	767.60368	247.32105	-75.12316	752.94891	255.16235	-53.85125	717.23969	284.02283	281.82718	927.93793	206.24443	17.71668	921.04721	225.00332	220.84576	981.92772	36.80183	52.45057	995.76553	46.48243	297.89703	619.35009	143.3617	301.86407	493.07873	244.32911	261.68362	302.26801	304.93876	300.01625	144.26673	259.60001	245.60938	85.55669	211.8663	284.76164	80.49518	396.36368	29.5943	635.97904	74.05045	56.11973	470.97866	181.01118	85.0532	298.74689	147.73987	86.72253	114.46885	62.42148	136.53018	75.20889	-14.99964	136.70129	52.35142	186.66767
